<svg width="30" height="30" viewBox="0 0 30 30" fill="none" xmlns="http://www.w3.org/2000/svg">
<path d="M0 6C0 3.17157 0 1.75736 0.87868 0.87868C1.75736 0 3.17157 0 6 0C8.82843 0 10.2426 0 11.1213 0.87868C12 1.75736 12 3.17157 12 6V24C12 26.8284 12 28.2426 11.1213 29.1213C10.2426 30 8.82843 30 6 30C3.17157 30 1.75736 30 0.87868 29.1213C0 28.2426 0 26.8284 0 24V6Z" fill="#FFD1AB"/>
<path d="M18 6C18 3.17157 18 1.75736 18.8787 0.87868C19.7574 0 21.1716 0 24 0C26.8284 0 28.2426 0 29.1213 0.87868C30 1.75736 30 3.17157 30 6V24C30 26.8284 30 28.2426 29.1213 29.1213C28.2426 30 26.8284 30 24 30C21.1716 30 19.7574 30 18.8787 29.1213C18 28.2426 18 26.8284 18 24V6Z" fill="#FFD1AB"/>
</svg>
